<svg xmlns="http://www.w3.org/2000/svg" height="16" viewBox="0 0 16 16" width="16" fill="#e6edf3">
  <path d="M1.75 1h12.5c.966 0 1.75.784 1.75 1.75v10.5A1.75 1.75 0 0 1 14.25 15H1.75A1.75 1.75 0 0 1 0 13.25V2.75C0 1.784.784 1 1.75 1Zm12.5 1.5H1.75a.25.25 0 0 0-.25.25v10.5c0 .138.112.25.25.25h12.5a.25.25 0 0 0 .25-.25V2.75a.25.25 0 0 0-.25-.25ZM7.25 8a.75.75 0 0 1 .75-.75h4.5a.75.75 0 0 1 0 1.5H8a.75.75 0 0 1-.75-.75Zm.75-3.25a.75.75 0 0 1 0-1.5h4.5a.75.75 0 0 1 0 1.5H8ZM3.5 4.25a1 1 0 1 1 2 0 1 1 0 0 1-2 0ZM4.5 7a1 1 0 1 0 0 2 1 1 0 0 0 0-2Z"/>
</svg>
